<mxfile host="app.diagrams.net" agent="Mozilla/5.0 (Macintosh; Intel Mac OS X 10_15_7) AppleWebKit/537.36 (KHTML, like Gecko) Chrome/135.0.0.0 Safari/537.36" version="26.2.15">
  <diagram id="C5RBs43oDa-KdzZeNtuy" name="Page-1">
    <mxGraphModel dx="1975" dy="875" grid="1" gridSize="10" guides="1" tooltips="1" connect="1" arrows="1" fold="1" page="1" pageScale="1" pageWidth="827" pageHeight="1169" math="0" shadow="0">
      <root>
        <mxCell id="WIyWlLk6GJQsqaUBKTNV-0" />
        <mxCell id="WIyWlLk6GJQsqaUBKTNV-1" parent="WIyWlLk6GJQsqaUBKTNV-0" />
        <mxCell id="zkfFHV4jXpPFQw0GAbJ--0" value="Variables" style="swimlane;fontStyle=0;align=center;verticalAlign=top;childLayout=stackLayout;horizontal=1;startSize=26;horizontalStack=0;resizeParent=1;resizeLast=0;collapsible=1;marginBottom=0;rounded=0;shadow=0;strokeWidth=1;" parent="WIyWlLk6GJQsqaUBKTNV-1" vertex="1">
          <mxGeometry x="40" y="80" width="240" height="540" as="geometry">
            <mxRectangle x="230" y="140" width="160" height="26" as="alternateBounds" />
          </mxGeometry>
        </mxCell>
        <mxCell id="zkfFHV4jXpPFQw0GAbJ--1" value="gamerTag - String" style="text;align=left;verticalAlign=top;spacingLeft=4;spacingRight=4;overflow=hidden;rotatable=0;points=[[0,0.5],[1,0.5]];portConstraint=eastwest;fillColor=#FFFF99;" parent="zkfFHV4jXpPFQw0GAbJ--0" vertex="1">
          <mxGeometry y="26" width="240" height="26" as="geometry" />
        </mxCell>
        <mxCell id="zkfFHV4jXpPFQw0GAbJ--3" value="hasBall - boolean" style="text;align=left;verticalAlign=top;spacingLeft=4;spacingRight=4;overflow=hidden;rotatable=0;points=[[0,0.5],[1,0.5]];portConstraint=eastwest;rounded=0;shadow=0;html=0;fillColor=#FFFF99;" parent="zkfFHV4jXpPFQw0GAbJ--0" vertex="1">
          <mxGeometry y="52" width="240" height="26" as="geometry" />
        </mxCell>
        <mxCell id="zkfFHV4jXpPFQw0GAbJ--5" value="lives - int" style="text;align=left;verticalAlign=top;spacingLeft=4;spacingRight=4;overflow=hidden;rotatable=0;points=[[0,0.5],[1,0.5]];portConstraint=eastwest;" parent="zkfFHV4jXpPFQw0GAbJ--0" vertex="1">
          <mxGeometry y="78" width="240" height="26" as="geometry" />
        </mxCell>
        <mxCell id="HwjWNNdyg6h4gdvFEkC3-0" value="isAlive - boolean" style="text;html=1;align=left;verticalAlign=middle;whiteSpace=wrap;rounded=0;fillColor=#FFFF99;" parent="zkfFHV4jXpPFQw0GAbJ--0" vertex="1">
          <mxGeometry y="104" width="240" height="30" as="geometry" />
        </mxCell>
        <mxCell id="HwjWNNdyg6h4gdvFEkC3-1" value="characterType - String" style="text;html=1;align=left;verticalAlign=middle;whiteSpace=wrap;rounded=0;" parent="zkfFHV4jXpPFQw0GAbJ--0" vertex="1">
          <mxGeometry y="134" width="240" height="30" as="geometry" />
        </mxCell>
        <mxCell id="HwjWNNdyg6h4gdvFEkC3-2" value="isAiming - boolean" style="text;html=1;align=left;verticalAlign=middle;whiteSpace=wrap;rounded=0;" parent="zkfFHV4jXpPFQw0GAbJ--0" vertex="1">
          <mxGeometry y="164" width="240" height="30" as="geometry" />
        </mxCell>
        <mxCell id="HwjWNNdyg6h4gdvFEkC3-3" value="movementSpeed - int" style="text;html=1;align=left;verticalAlign=middle;whiteSpace=wrap;rounded=0;" parent="zkfFHV4jXpPFQw0GAbJ--0" vertex="1">
          <mxGeometry y="194" width="240" height="30" as="geometry" />
        </mxCell>
        <mxCell id="HwjWNNdyg6h4gdvFEkC3-4" value="jumpHeight - int" style="text;html=1;align=left;verticalAlign=middle;whiteSpace=wrap;rounded=0;" parent="zkfFHV4jXpPFQw0GAbJ--0" vertex="1">
          <mxGeometry y="224" width="240" height="30" as="geometry" />
        </mxCell>
        <mxCell id="HwjWNNdyg6h4gdvFEkC3-5" value="gravity - int" style="text;html=1;align=left;verticalAlign=middle;whiteSpace=wrap;rounded=0;" parent="zkfFHV4jXpPFQw0GAbJ--0" vertex="1">
          <mxGeometry y="254" width="240" height="30" as="geometry" />
        </mxCell>
        <mxCell id="HwjWNNdyg6h4gdvFEkC3-23" value="isCatching - boolean" style="text;html=1;align=left;verticalAlign=middle;whiteSpace=wrap;rounded=0;" parent="zkfFHV4jXpPFQw0GAbJ--0" vertex="1">
          <mxGeometry y="284" width="240" height="30" as="geometry" />
        </mxCell>
        <mxCell id="HwjWNNdyg6h4gdvFEkC3-24" value="isBlocking - boolean" style="text;html=1;align=left;verticalAlign=middle;whiteSpace=wrap;rounded=0;" parent="zkfFHV4jXpPFQw0GAbJ--0" vertex="1">
          <mxGeometry y="314" width="240" height="30" as="geometry" />
        </mxCell>
        <mxCell id="HwjWNNdyg6h4gdvFEkC3-25" value="catchTarget - Ball" style="text;html=1;align=left;verticalAlign=middle;whiteSpace=wrap;rounded=0;" parent="zkfFHV4jXpPFQw0GAbJ--0" vertex="1">
          <mxGeometry y="344" width="240" height="30" as="geometry" />
        </mxCell>
        <mxCell id="HwjWNNdyg6h4gdvFEkC3-26" value="blockTarget - Ball" style="text;html=1;align=left;verticalAlign=middle;whiteSpace=wrap;rounded=0;" parent="zkfFHV4jXpPFQw0GAbJ--0" vertex="1">
          <mxGeometry y="374" width="240" height="30" as="geometry" />
        </mxCell>
        <mxCell id="HwjWNNdyg6h4gdvFEkC3-27" value="eliminations - int" style="text;html=1;align=left;verticalAlign=middle;whiteSpace=wrap;rounded=0;fillColor=#FFFF99;" parent="zkfFHV4jXpPFQw0GAbJ--0" vertex="1">
          <mxGeometry y="404" width="240" height="30" as="geometry" />
        </mxCell>
        <mxCell id="Yqa2UdryGtxS3ovXZVIz-58" value="rotation: vector3 (where player is looking" style="text;html=1;strokeColor=none;fillColor=#FFFF99;align=left;verticalAlign=top;spacingLeft=4;spacingRight=4;whiteSpace=wrap;overflow=hidden;rotatable=0;points=[[0,0.5],[1,0.5]];portConstraint=eastwest;" vertex="1" parent="zkfFHV4jXpPFQw0GAbJ--0">
          <mxGeometry y="434" width="240" height="26" as="geometry" />
        </mxCell>
        <mxCell id="Yqa2UdryGtxS3ovXZVIz-57" value="position: vector3" style="text;html=1;strokeColor=none;fillColor=#FFFF99;align=left;verticalAlign=top;spacingLeft=4;spacingRight=4;whiteSpace=wrap;overflow=hidden;rotatable=0;points=[[0,0.5],[1,0.5]];portConstraint=eastwest;" vertex="1" parent="zkfFHV4jXpPFQw0GAbJ--0">
          <mxGeometry y="460" width="240" height="26" as="geometry" />
        </mxCell>
        <mxCell id="Yqa2UdryGtxS3ovXZVIz-59" value="hitbox: Hitbox" style="text;html=1;strokeColor=none;fillColor=#FFFF99;align=left;verticalAlign=top;spacingLeft=4;spacingRight=4;whiteSpace=wrap;overflow=hidden;rotatable=0;points=[[0,0.5],[1,0.5]];portConstraint=eastwest;" vertex="1" parent="zkfFHV4jXpPFQw0GAbJ--0">
          <mxGeometry y="486" width="240" height="26" as="geometry" />
        </mxCell>
        <mxCell id="Yqa2UdryGtxS3ovXZVIz-60" value="teamID: int" style="text;html=1;strokeColor=none;fillColor=#FFFF99;align=left;verticalAlign=top;spacingLeft=4;spacingRight=4;whiteSpace=wrap;overflow=hidden;rotatable=0;points=[[0,0.5],[1,0.5]];portConstraint=eastwest;" vertex="1" parent="zkfFHV4jXpPFQw0GAbJ--0">
          <mxGeometry y="512" width="240" height="26" as="geometry" />
        </mxCell>
        <mxCell id="HwjWNNdyg6h4gdvFEkC3-29" style="edgeStyle=orthogonalEdgeStyle;rounded=0;orthogonalLoop=1;jettySize=auto;html=1;exitX=0.5;exitY=0;exitDx=0;exitDy=0;entryX=0.5;entryY=0;entryDx=0;entryDy=0;" parent="WIyWlLk6GJQsqaUBKTNV-1" source="HwjWNNdyg6h4gdvFEkC3-11" target="zkfFHV4jXpPFQw0GAbJ--0" edge="1">
          <mxGeometry relative="1" as="geometry" />
        </mxCell>
        <mxCell id="HwjWNNdyg6h4gdvFEkC3-11" value="Methods" style="swimlane;fontStyle=0;align=center;verticalAlign=top;childLayout=stackLayout;horizontal=1;startSize=26;horizontalStack=0;resizeParent=1;resizeLast=0;collapsible=1;marginBottom=0;rounded=0;shadow=0;strokeWidth=1;" parent="WIyWlLk6GJQsqaUBKTNV-1" vertex="1">
          <mxGeometry x="280" y="80" width="410" height="540" as="geometry">
            <mxRectangle x="230" y="140" width="160" height="26" as="alternateBounds" />
          </mxGeometry>
        </mxCell>
        <mxCell id="HwjWNNdyg6h4gdvFEkC3-12" value="readyUp() - player is ready in lobby" style="text;align=left;verticalAlign=top;spacingLeft=4;spacingRight=4;overflow=hidden;rotatable=0;points=[[0,0.5],[1,0.5]];portConstraint=eastwest;fillColor=#FFFF99;" parent="HwjWNNdyg6h4gdvFEkC3-11" vertex="1">
          <mxGeometry y="26" width="410" height="26" as="geometry" />
        </mxCell>
        <mxCell id="HwjWNNdyg6h4gdvFEkC3-13" value="throwBall() - player throws the ball" style="text;align=left;verticalAlign=top;spacingLeft=4;spacingRight=4;overflow=hidden;rotatable=0;points=[[0,0.5],[1,0.5]];portConstraint=eastwest;rounded=0;shadow=0;html=0;fillColor=#FFFF99;" parent="HwjWNNdyg6h4gdvFEkC3-11" vertex="1">
          <mxGeometry y="52" width="410" height="26" as="geometry" />
        </mxCell>
        <mxCell id="HwjWNNdyg6h4gdvFEkC3-14" value="loseLife() - player loses life if hit with ball" style="text;align=left;verticalAlign=top;spacingLeft=4;spacingRight=4;overflow=hidden;rotatable=0;points=[[0,0.5],[1,0.5]];portConstraint=eastwest;rounded=0;shadow=0;html=0;fillColor=#FFFF99;" parent="HwjWNNdyg6h4gdvFEkC3-11" vertex="1">
          <mxGeometry y="78" width="410" height="26" as="geometry" />
        </mxCell>
        <mxCell id="HwjWNNdyg6h4gdvFEkC3-15" value="eliminate() - player gets eliminated and gets sent to spectating mode" style="text;align=left;verticalAlign=top;spacingLeft=4;spacingRight=4;overflow=hidden;rotatable=0;points=[[0,0.5],[1,0.5]];portConstraint=eastwest;fillColor=#FFFF99;" parent="HwjWNNdyg6h4gdvFEkC3-11" vertex="1">
          <mxGeometry y="104" width="410" height="26" as="geometry" />
        </mxCell>
        <mxCell id="HwjWNNdyg6h4gdvFEkC3-16" value="respawn() - player catches a ball in spectating mode and comes back alive" style="text;html=1;align=left;verticalAlign=middle;whiteSpace=wrap;rounded=0;" parent="HwjWNNdyg6h4gdvFEkC3-11" vertex="1">
          <mxGeometry y="130" width="410" height="30" as="geometry" />
        </mxCell>
        <mxCell id="HwjWNNdyg6h4gdvFEkC3-17" value="catchBall() - player starts the process to catch a ball" style="text;html=1;align=left;verticalAlign=middle;whiteSpace=wrap;rounded=0;fillColor=none;" parent="HwjWNNdyg6h4gdvFEkC3-11" vertex="1">
          <mxGeometry y="160" width="410" height="30" as="geometry" />
        </mxCell>
        <mxCell id="HwjWNNdyg6h4gdvFEkC3-18" value="blockBall() - player starts the process to block the ball" style="text;html=1;align=left;verticalAlign=middle;whiteSpace=wrap;rounded=0;fillColor=none;" parent="HwjWNNdyg6h4gdvFEkC3-11" vertex="1">
          <mxGeometry y="190" width="410" height="30" as="geometry" />
        </mxCell>
        <mxCell id="Yqa2UdryGtxS3ovXZVIz-63" value="checkCollision(other: Hitbox): boolean" style="text;html=1;strokeColor=none;fillColor=#FFFF99;align=left;verticalAlign=top;spacingLeft=4;spacingRight=4;whiteSpace=wrap;overflow=hidden;rotatable=0;points=[[0,0.5],[1,0.5]];portConstraint=eastwest;" vertex="1" parent="HwjWNNdyg6h4gdvFEkC3-11">
          <mxGeometry y="220" width="410" height="26" as="geometry" />
        </mxCell>
        <mxCell id="Yqa2UdryGtxS3ovXZVIz-37" value="&lt;div&gt;Hitbox&lt;/div&gt;" style="swimlane;html=1;fontStyle=1;align=center;verticalAlign=top;childLayout=stackLayout;horizontal=1;startSize=26;horizontalStack=0;resizeParent=1;resizeLast=0;collapsible=1;marginBottom=0;swimlaneFillColor=#ffffff;rounded=0;shadow=0;comic=0;labelBackgroundColor=none;strokeWidth=1;fillColor=none;fontFamily=Verdana;fontSize=12" vertex="1" parent="WIyWlLk6GJQsqaUBKTNV-1">
          <mxGeometry x="60" y="700" width="240" height="277" as="geometry" />
        </mxCell>
        <mxCell id="Yqa2UdryGtxS3ovXZVIz-38" value="center: Vector 3" style="text;html=1;strokeColor=none;fillColor=#FFFF99;align=left;verticalAlign=top;spacingLeft=4;spacingRight=4;whiteSpace=wrap;overflow=hidden;rotatable=0;points=[[0,0.5],[1,0.5]];portConstraint=eastwest;" vertex="1" parent="Yqa2UdryGtxS3ovXZVIz-37">
          <mxGeometry y="26" width="240" height="26" as="geometry" />
        </mxCell>
        <mxCell id="Yqa2UdryGtxS3ovXZVIz-39" value="size: vector3 (width, height, depth of box)" style="text;html=1;strokeColor=none;fillColor=#FFFF99;align=left;verticalAlign=top;spacingLeft=4;spacingRight=4;whiteSpace=wrap;overflow=hidden;rotatable=0;points=[[0,0.5],[1,0.5]];portConstraint=eastwest;" vertex="1" parent="Yqa2UdryGtxS3ovXZVIz-37">
          <mxGeometry y="52" width="240" height="26" as="geometry" />
        </mxCell>
        <mxCell id="Yqa2UdryGtxS3ovXZVIz-40" value="+ field: type" style="text;html=1;strokeColor=none;fillColor=none;align=left;verticalAlign=top;spacingLeft=4;spacingRight=4;whiteSpace=wrap;overflow=hidden;rotatable=0;points=[[0,0.5],[1,0.5]];portConstraint=eastwest;" vertex="1" parent="Yqa2UdryGtxS3ovXZVIz-37">
          <mxGeometry y="78" width="240" height="26" as="geometry" />
        </mxCell>
        <mxCell id="Yqa2UdryGtxS3ovXZVIz-41" value="" style="line;html=1;strokeWidth=1;fillColor=none;align=left;verticalAlign=middle;spacingTop=-1;spacingLeft=3;spacingRight=3;rotatable=0;labelPosition=right;points=[];portConstraint=eastwest;" vertex="1" parent="Yqa2UdryGtxS3ovXZVIz-37">
          <mxGeometry y="104" width="240" height="8" as="geometry" />
        </mxCell>
        <mxCell id="Yqa2UdryGtxS3ovXZVIz-42" value="ballCollision(other: Hitbox): boolean" style="text;html=1;strokeColor=none;fillColor=#FFFF99;align=left;verticalAlign=top;spacingLeft=4;spacingRight=4;whiteSpace=wrap;overflow=hidden;rotatable=0;points=[[0,0.5],[1,0.5]];portConstraint=eastwest;" vertex="1" parent="Yqa2UdryGtxS3ovXZVIz-37">
          <mxGeometry y="112" width="240" height="26" as="geometry" />
        </mxCell>
        <mxCell id="Yqa2UdryGtxS3ovXZVIz-43" value="+ method(type): type" style="text;html=1;strokeColor=none;fillColor=none;align=left;verticalAlign=top;spacingLeft=4;spacingRight=4;whiteSpace=wrap;overflow=hidden;rotatable=0;points=[[0,0.5],[1,0.5]];portConstraint=eastwest;" vertex="1" parent="Yqa2UdryGtxS3ovXZVIz-37">
          <mxGeometry y="138" width="240" height="26" as="geometry" />
        </mxCell>
        <mxCell id="Yqa2UdryGtxS3ovXZVIz-44" value="+ method(type): type" style="text;html=1;strokeColor=none;fillColor=none;align=left;verticalAlign=top;spacingLeft=4;spacingRight=4;whiteSpace=wrap;overflow=hidden;rotatable=0;points=[[0,0.5],[1,0.5]];portConstraint=eastwest;" vertex="1" parent="Yqa2UdryGtxS3ovXZVIz-37">
          <mxGeometry y="164" width="240" height="26" as="geometry" />
        </mxCell>
        <mxCell id="Yqa2UdryGtxS3ovXZVIz-55" style="edgeStyle=orthogonalEdgeStyle;rounded=0;orthogonalLoop=1;jettySize=auto;html=1;entryX=0.5;entryY=0;entryDx=0;entryDy=0;exitX=0.5;exitY=1;exitDx=0;exitDy=0;" edge="1" parent="WIyWlLk6GJQsqaUBKTNV-1" source="zkfFHV4jXpPFQw0GAbJ--0" target="Yqa2UdryGtxS3ovXZVIz-37">
          <mxGeometry relative="1" as="geometry">
            <mxPoint x="280" y="527" as="sourcePoint" />
          </mxGeometry>
        </mxCell>
        <mxCell id="Yqa2UdryGtxS3ovXZVIz-76" style="edgeStyle=orthogonalEdgeStyle;rounded=0;orthogonalLoop=1;jettySize=auto;html=1;exitX=0.5;exitY=0;exitDx=0;exitDy=0;" edge="1" parent="WIyWlLk6GJQsqaUBKTNV-1" source="Yqa2UdryGtxS3ovXZVIz-64">
          <mxGeometry relative="1" as="geometry">
            <mxPoint x="475" y="620" as="targetPoint" />
          </mxGeometry>
        </mxCell>
        <mxCell id="Yqa2UdryGtxS3ovXZVIz-64" value="Ball" style="swimlane;html=1;fontStyle=1;align=center;verticalAlign=top;childLayout=stackLayout;horizontal=1;startSize=26;horizontalStack=0;resizeParent=1;resizeLast=0;collapsible=1;marginBottom=0;swimlaneFillColor=#ffffff;rounded=0;shadow=0;comic=0;labelBackgroundColor=none;strokeWidth=1;fillColor=none;fontFamily=Verdana;fontSize=12" vertex="1" parent="WIyWlLk6GJQsqaUBKTNV-1">
          <mxGeometry x="370" y="730" width="210" height="242" as="geometry" />
        </mxCell>
        <mxCell id="Yqa2UdryGtxS3ovXZVIz-65" value="state: BallState: (air, ground, player)" style="text;html=1;strokeColor=none;fillColor=#FFFF99;align=left;verticalAlign=top;spacingLeft=4;spacingRight=4;whiteSpace=wrap;overflow=hidden;rotatable=0;points=[[0,0.5],[1,0.5]];portConstraint=eastwest;" vertex="1" parent="Yqa2UdryGtxS3ovXZVIz-64">
          <mxGeometry y="26" width="210" height="26" as="geometry" />
        </mxCell>
        <mxCell id="Yqa2UdryGtxS3ovXZVIz-66" value="position: vector3" style="text;html=1;strokeColor=none;fillColor=none;align=left;verticalAlign=top;spacingLeft=4;spacingRight=4;whiteSpace=wrap;overflow=hidden;rotatable=0;points=[[0,0.5],[1,0.5]];portConstraint=eastwest;" vertex="1" parent="Yqa2UdryGtxS3ovXZVIz-64">
          <mxGeometry y="52" width="210" height="26" as="geometry" />
        </mxCell>
        <mxCell id="Yqa2UdryGtxS3ovXZVIz-67" value="owner: player" style="text;html=1;strokeColor=none;fillColor=none;align=left;verticalAlign=top;spacingLeft=4;spacingRight=4;whiteSpace=wrap;overflow=hidden;rotatable=0;points=[[0,0.5],[1,0.5]];portConstraint=eastwest;" vertex="1" parent="Yqa2UdryGtxS3ovXZVIz-64">
          <mxGeometry y="78" width="210" height="26" as="geometry" />
        </mxCell>
        <mxCell id="Yqa2UdryGtxS3ovXZVIz-68" value="hitbox: Hitbox" style="text;html=1;strokeColor=none;fillColor=none;align=left;verticalAlign=top;spacingLeft=4;spacingRight=4;whiteSpace=wrap;overflow=hidden;rotatable=0;points=[[0,0.5],[1,0.5]];portConstraint=eastwest;" vertex="1" parent="Yqa2UdryGtxS3ovXZVIz-64">
          <mxGeometry y="104" width="210" height="26" as="geometry" />
        </mxCell>
        <mxCell id="Yqa2UdryGtxS3ovXZVIz-69" value="" style="line;html=1;strokeWidth=1;fillColor=none;align=left;verticalAlign=middle;spacingTop=-1;spacingLeft=3;spacingRight=3;rotatable=0;labelPosition=right;points=[];portConstraint=eastwest;" vertex="1" parent="Yqa2UdryGtxS3ovXZVIz-64">
          <mxGeometry y="130" width="210" height="30" as="geometry" />
        </mxCell>
        <mxCell id="Yqa2UdryGtxS3ovXZVIz-70" value="checkCollision(): bool" style="text;html=1;strokeColor=none;fillColor=#FFFF99;align=left;verticalAlign=top;spacingLeft=4;spacingRight=4;whiteSpace=wrap;overflow=hidden;rotatable=0;points=[[0,0.5],[1,0.5]];portConstraint=eastwest;" vertex="1" parent="Yqa2UdryGtxS3ovXZVIz-64">
          <mxGeometry y="160" width="210" height="26" as="geometry" />
        </mxCell>
        <mxCell id="Yqa2UdryGtxS3ovXZVIz-71" value="updatePosition(delta: float): void" style="text;html=1;strokeColor=none;fillColor=#FFFF99;align=left;verticalAlign=top;spacingLeft=4;spacingRight=4;whiteSpace=wrap;overflow=hidden;rotatable=0;points=[[0,0.5],[1,0.5]];portConstraint=eastwest;" vertex="1" parent="Yqa2UdryGtxS3ovXZVIz-64">
          <mxGeometry y="186" width="210" height="26" as="geometry" />
        </mxCell>
        <mxCell id="Yqa2UdryGtxS3ovXZVIz-74" value="&lt;b&gt;&lt;font style=&quot;font-size: 18px;&quot;&gt;Player&lt;/font&gt;&lt;/b&gt;" style="text;html=1;align=center;verticalAlign=middle;resizable=0;points=[];autosize=1;strokeColor=none;fillColor=none;" vertex="1" parent="WIyWlLk6GJQsqaUBKTNV-1">
          <mxGeometry x="260" y="20" width="80" height="40" as="geometry" />
        </mxCell>
        <mxCell id="Yqa2UdryGtxS3ovXZVIz-75" style="edgeStyle=orthogonalEdgeStyle;rounded=0;orthogonalLoop=1;jettySize=auto;html=1;exitX=0;exitY=0.5;exitDx=0;exitDy=0;entryX=1.021;entryY=-0.09;entryDx=0;entryDy=0;entryPerimeter=0;" edge="1" parent="WIyWlLk6GJQsqaUBKTNV-1" source="Yqa2UdryGtxS3ovXZVIz-68" target="Yqa2UdryGtxS3ovXZVIz-44">
          <mxGeometry relative="1" as="geometry" />
        </mxCell>
      </root>
    </mxGraphModel>
  </diagram>
</mxfile>
